<svg xmlns="http://www.w3.org/2000/svg" width="2000" height="1200" viewBox="0 0 2000 1200" fill="none">
  <defs>
    <linearGradient id="bg" x1="186" y1="72" x2="1704" y2="1142" gradientUnits="userSpaceOnUse">
      <stop stop-color="#111B2A"/>
      <stop offset="0.46" stop-color="#0A1019"/>
      <stop offset="1" stop-color="#05070C"/>
    </linearGradient>
    <radialGradient id="sun" cx="0" cy="0" r="1" gradientUnits="userSpaceOnUse" gradientTransform="translate(380 220) rotate(26) scale(760 420)">
      <stop stop-color="#F15B45" stop-opacity="0.45"/>
      <stop offset="1" stop-color="#F15B45" stop-opacity="0"/>
    </radialGradient>
    <radialGradient id="goldFade" cx="0" cy="0" r="1" gradientUnits="userSpaceOnUse" gradientTransform="translate(1600 160) rotate(150) scale(620 300)">
      <stop stop-color="#F7C66D" stop-opacity="0.25"/>
      <stop offset="1" stop-color="#F7C66D" stop-opacity="0"/>
    </radialGradient>
    <linearGradient id="road" x1="1000" y1="660" x2="1000" y2="1180" gradientUnits="userSpaceOnUse">
      <stop stop-color="#121A28"/>
      <stop offset="1" stop-color="#05070C"/>
    </linearGradient>
    <linearGradient id="carBody" x1="620" y1="670" x2="1440" y2="900" gradientUnits="userSpaceOnUse">
      <stop stop-color="#DDE5F2" stop-opacity="0.16"/>
      <stop offset="0.35" stop-color="#9CA9BD" stop-opacity="0.3"/>
      <stop offset="1" stop-color="#0F1722" stop-opacity="0.7"/>
    </linearGradient>
    <linearGradient id="window" x1="860" y1="664" x2="1220" y2="764" gradientUnits="userSpaceOnUse">
      <stop stop-color="#6E829E" stop-opacity="0.62"/>
      <stop offset="1" stop-color="#192435" stop-opacity="0.2"/>
    </linearGradient>
    <filter id="blurLarge" x="0" y="0" width="2000" height="1200" filterUnits="userSpaceOnUse" color-interpolation-filters="sRGB">
      <feGaussianBlur stdDeviation="45"/>
    </filter>
    <filter id="carShadow" x="510" y="620" width="1020" height="380" filterUnits="userSpaceOnUse" color-interpolation-filters="sRGB">
      <feDropShadow dx="0" dy="20" stdDeviation="18" flood-color="#000" flood-opacity="0.55"/>
    </filter>
    <filter id="grain" x="0" y="0" width="2000" height="1200" filterUnits="userSpaceOnUse" color-interpolation-filters="sRGB">
      <feTurbulence type="fractalNoise" baseFrequency="0.8" numOctaves="2" seed="11"/>
      <feColorMatrix type="saturate" values="0"/>
      <feComponentTransfer>
        <feFuncA type="table" tableValues="0 0 0.045 0"/>
      </feComponentTransfer>
    </filter>
  </defs>

  <rect width="2000" height="1200" fill="url(#bg)"/>
  <rect width="2000" height="1200" fill="url(#sun)"/>
  <rect width="2000" height="1200" fill="url(#goldFade)"/>

  <g filter="url(#blurLarge)" opacity="0.55">
    <ellipse cx="570" cy="722" rx="350" ry="58" fill="#E84C37"/>
    <ellipse cx="1360" cy="724" rx="300" ry="52" fill="#C2D9FF"/>
  </g>

  <path d="M160 1200L720 676H1280L1840 1200H160Z" fill="url(#road)"/>
  <path d="M986 690L1000 688L1014 690L1110 1200H890L986 690Z" fill="#F6C66C" fill-opacity="0.25"/>
  <path d="M991 690L1000 689L1009 690L1068 1200H932L991 690Z" fill="#F6C66C" fill-opacity="0.55"/>

  <g filter="url(#carShadow)">
    <path d="M590 798C611 760 659 724 734 704C830 677 988 664 1161 672C1300 679 1390 712 1432 761C1455 788 1452 826 1428 852C1404 879 1364 897 1320 903H738C676 903 614 884 588 850C573 831 573 812 590 798Z" fill="#0A121D"/>
    <path d="M604 804C622 768 668 735 740 715C833 688 986 675 1156 683C1287 689 1373 719 1413 763C1435 787 1434 818 1415 838C1390 863 1354 878 1318 883H744C688 883 634 867 611 839C601 826 598 816 604 804Z" fill="url(#carBody)"/>
    <path d="M824 724C865 699 958 688 1074 696C1154 702 1223 718 1263 742L1183 752C1107 761 956 761 876 750L824 724Z" fill="url(#window)"/>
    <path d="M819 724L863 703C897 688 968 681 1040 684C1138 687 1225 705 1281 739L1262 742C1217 714 1138 697 1041 694C965 691 897 699 864 714L819 724Z" fill="#CFD8EA" fill-opacity="0.25"/>
    <ellipse cx="792" cy="887" rx="94" ry="16" fill="#070A0F"/>
    <ellipse cx="1255" cy="887" rx="104" ry="16" fill="#070A0F"/>
    <circle cx="792" cy="884" r="58" fill="#05090F"/>
    <circle cx="1254" cy="883" r="61" fill="#05090F"/>
    <circle cx="792" cy="884" r="23" fill="#7D879A"/>
    <circle cx="1254" cy="883" r="24" fill="#7D879A"/>
    <path d="M651 804L716 790" stroke="#F6C66C" stroke-opacity="0.52" stroke-width="4" stroke-linecap="round"/>
    <path d="M1295 778L1366 792" stroke="#E84C37" stroke-opacity="0.8" stroke-width="5" stroke-linecap="round"/>
  </g>

  <g opacity="0.5">
    <path d="M290 522C640 500 1002 480 1734 518" stroke="#9BAECD" stroke-opacity="0.22" stroke-width="2"/>
    <path d="M256 570C606 544 1007 536 1766 563" stroke="#9BAECD" stroke-opacity="0.16" stroke-width="2"/>
  </g>

  <rect width="2000" height="1200" filter="url(#grain)"/>
</svg>
