<svg xmlns="http://www.w3.org/2000/svg" width="1200" height="750" viewBox="0 0 1200 750" fill="none">
  <defs>
    <linearGradient id="bg" x1="144" y1="84" x2="1082" y2="704" gradientUnits="userSpaceOnUse">
      <stop stop-color="#251734"/>
      <stop offset="1" stop-color="#0A0712"/>
    </linearGradient>
    <radialGradient id="violet" cx="0" cy="0" r="1" gradientUnits="userSpaceOnUse" gradientTransform="translate(920 214) rotate(140) scale(500 280)">
      <stop stop-color="#B981FF" stop-opacity="0.35"/>
      <stop offset="1" stop-color="#B981FF" stop-opacity="0"/>
    </radialGradient>
    <linearGradient id="panel" x1="250" y1="308" x2="926" y2="624" gradientUnits="userSpaceOnUse">
      <stop stop-color="#E8DAFF" stop-opacity="0.2"/>
      <stop offset="1" stop-color="#211438" stop-opacity="0.8"/>
    </linearGradient>
  </defs>

  <rect width="1200" height="750" fill="url(#bg)"/>
  <rect width="1200" height="750" fill="url(#violet)"/>

  <rect x="174" y="184" width="852" height="420" rx="30" fill="#0E0A18" stroke="#5C3F81" stroke-opacity="0.6"/>
  <rect x="222" y="230" width="760" height="328" rx="24" fill="url(#panel)"/>

  <path d="M250 305C470 266 672 266 934 314" stroke="#7B58A6" stroke-opacity="0.35" stroke-width="3"/>
  <path d="M242 357C479 318 700 322 954 371" stroke="#7B58A6" stroke-opacity="0.26" stroke-width="3"/>
  <path d="M232 410C486 372 724 380 966 430" stroke="#7B58A6" stroke-opacity="0.22" stroke-width="3"/>

  <g>
    <circle cx="742" cy="430" r="112" fill="#161021" stroke="#B28AE2" stroke-opacity="0.44" stroke-width="4"/>
    <circle cx="742" cy="430" r="82" fill="#221431" stroke="#D2B3FF" stroke-opacity="0.45" stroke-width="3"/>
    <circle cx="742" cy="430" r="50" fill="#2D1942"/>
    <circle cx="742" cy="430" r="20" fill="#DAB8FF" fill-opacity="0.7"/>
    <path d="M742 306V554" stroke="#DAB8FF" stroke-opacity="0.35" stroke-width="2"/>
    <path d="M618 430H866" stroke="#DAB8FF" stroke-opacity="0.35" stroke-width="2"/>
    <path d="M653 342L831 518" stroke="#DAB8FF" stroke-opacity="0.25" stroke-width="2"/>
    <path d="M831 342L653 518" stroke="#DAB8FF" stroke-opacity="0.25" stroke-width="2"/>
  </g>

  <path d="M300 535C421 492 515 478 618 486" stroke="#E8D4FF" stroke-opacity="0.5" stroke-width="10" stroke-linecap="round"/>
  <circle cx="282" cy="540" r="16" fill="#E8D4FF" fill-opacity="0.8"/>
</svg>
