<svg xmlns="http://www.w3.org/2000/svg" width="1200" height="800" viewBox="0 0 1200 800" fill="none">
  <defs>
    <linearGradient id="bg" x1="98" y1="94" x2="1092" y2="744" gradientUnits="userSpaceOnUse">
      <stop stop-color="#1A1F2A"/>
      <stop offset="1" stop-color="#090C12"/>
    </linearGradient>
    <linearGradient id="before" x1="148" y1="164" x2="544" y2="668" gradientUnits="userSpaceOnUse">
      <stop stop-color="#5A6370" stop-opacity="0.35"/>
      <stop offset="1" stop-color="#171C27" stop-opacity="0.9"/>
    </linearGradient>
    <linearGradient id="after" x1="644" y1="144" x2="1068" y2="668" gradientUnits="userSpaceOnUse">
      <stop stop-color="#8FD7FF" stop-opacity="0.5"/>
      <stop offset="1" stop-color="#1A324B" stop-opacity="0.85"/>
    </linearGradient>
  </defs>

  <rect width="1200" height="800" fill="url(#bg)"/>
  <rect x="92" y="120" width="1016" height="560" rx="26" fill="#0E131D" stroke="#2B3342" stroke-width="2"/>
  <rect x="122" y="154" width="464" height="492" rx="20" fill="url(#before)"/>
  <rect x="614" y="154" width="464" height="492" rx="20" fill="url(#after)"/>

  <path d="M260 466C282 425 326 400 386 390C451 379 521 387 570 409V526H226L260 466Z" fill="#1A202C"/>
  <path d="M752 466C774 426 819 399 879 389C943 378 1014 387 1062 409V526H718L752 466Z" fill="#102233"/>

  <path d="M600 134V666" stroke="#F7C66D" stroke-opacity="0.7" stroke-width="5" stroke-dasharray="8 12"/>
</svg>
